<svg xmlns="http://www.w3.org/2000/svg" xml:space="preserve" width="1000px" height="1170px" x="0px" y="0px" viewBox="0 0 1000 1170"><path fill="#EC0080" d="M983.299 483.932H607.161c-9.265 0-16.693-7.521-16.693-16.668 0 9.147 7.429 20.973 16.693 26.27l376.138 217.273c9.215 5.281 16.701 2.119 16.701-7.097V482.585c0-2.599-.648-5.351-1.75-8.17a16.498 16.498 0 0 1-14.951 9.517"/><path fill="#85288F" d="m983.299 456.343-172.406-99.655-203.731 117.63c-9.265 5.296-16.693 2.104-16.693-7.041 0 9.145 7.429 16.641 16.693 16.641H983.3c6.59 0 12.342-3.865 14.951-9.49-2.61-7.095-8.362-14.316-14.952-18.085"/><path fill="#FCB832" d="M1000 9.722c0-9.269-7.501-12.418-16.643-7.041L607.161 219.762c-9.235 5.322-16.708 17.123-16.708 26.364 0-9.242 7.473-16.683 16.708-16.683h376.138a16.434 16.434 0 0 1 14.951 9.504c1.131-2.819 1.75-5.639 1.75-8.17V9.722z"/><path fill="#F5841E" d="M983.299 229.443H607.161c-9.265 0-16.693 7.469-16.693 16.668 0-9.2 7.429-12.364 16.693-7.04l203.731 117.63 172.465-99.655c6.531-3.796 12.283-10.962 14.893-18.113-2.609-5.597-8.361-9.49-14.951-9.49"/><path fill="#44207A" d="m607.154 474.306 203.724-117.617-203.724-117.632c-9.243-5.294-16.701-2.16-16.701 7.042v221.165c0 9.159 7.458 12.336 16.701 7.042M0 712.841h98.239v185.063l173.142-185.063h128.47L201.449 919.966l215.388 238.616H279.575L98.239 947.031v211.551H0z"/><path fill="#44207A" d="M821.703 1127.115c-57.947 30.175-121.508 42.828-187.029 42.828-139.143 0-240.545-91.377-240.545-234.244 0-142.951 101.402-234.19 240.545-234.19 70.522 0 132.895 15.733 177.589 57.24l-69.313 75.616c-26.389-27.781-58.509-42.25-108.276-42.25-83.732 0-138.523 60.486-138.523 143.584 0 83.123 54.791 143.555 138.523 143.555 42.835 0 74.306-11.992 92.56-22.032v-72.368h-79.912v-90.69h174.382v232.951z"/></svg>